<?xml version="1.0" encoding="utf-8"?>
<!-- Generator: Adobe Illustrator 24.1.2, SVG Export Plug-In . SVG Version: 6.00 Build 0)  -->
<svg version="1.1" id="Layer_1" xmlns="http://www.w3.org/2000/svg" xmlns:xlink="http://www.w3.org/1999/xlink" x="0px" y="0px"
	 viewBox="0 0 18 18" style="enable-background:new 0 0 18 18;" xml:space="preserve">
<style type="text/css">
	.st0{fill:none;}
	.st1{fill:#FFFFFF;}
</style>
<path class="st0" d="M18,18H0L0,0l18,0V18z M18,18H0L0,0l18,0V18z M18,18H0L0,0l18,0V18z M18,18H0L0,0l18,0V18z"/>
<path class="st1" d="M10.1,5.1l1.6-1.6C10.9,3.1,10,3,9,3C5.2,3,2,5.3,0.8,8.6c0.5,1.3,1.3,2.5,2.4,3.4l2.3-2.3
	C5.3,9.4,5.2,9,5.2,8.6c0-2.1,1.7-3.8,3.8-3.8C9.4,4.9,9.8,4.9,10.1,5.1z M14.9,2.4L2.7,14.6c-0.3,0.3-0.3,0.8,0,1.1s0.8,0.3,1.1,0
	l2-2c1,0.4,2.1,0.6,3.2,0.6c3.8,0,7-2.3,8.2-5.6c-0.6-1.5-1.5-2.8-2.8-3.7L16,3.4c0.3-0.3,0.3-0.8,0-1.1C15.7,2.1,15.2,2.1,14.9,2.4
	z M7.4,12l1.2-1.2c0.1,0,0.3,0.1,0.4,0.1c1.2,0,2.2-1,2.2-2.2c0-0.1,0-0.3,0-0.4L12.4,7c0.2,0.5,0.4,1,0.4,1.6
	c0,2.1-1.7,3.8-3.8,3.8C8.4,12.4,7.9,12.2,7.4,12z M8.8,6.4c-1,0.1-1.9,0.9-2,2L8.8,6.4z"/>
</svg>
