<svg xmlns="http://www.w3.org/2000/svg" viewBox="0 0 1935 1095"><defs><style>.a,.b,.c{fill:none;stroke:#000;}.a,.c{stroke-miterlimit:10;}.a{stroke-width:15px;}.b{stroke-width:7.173px;}.c{stroke-width:10px;}</style></defs><path class="a" d="M0,0V1080H1920V0Z" transform="translate(7.5 7.5)"/><rect class="b" x="116.319" y="124.431" width="313.185" height="240.267"/><rect class="b" x="465.614" y="124.431" width="313.185" height="240.267"/><rect class="b" x="810.907" y="124.431" width="313.185" height="240.267"/><rect class="b" x="1158.202" y="124.431" width="313.185" height="240.267"/><rect class="b" x="1505.496" y="124.431" width="313.185" height="240.267"/><rect class="b" x="116.318" y="427.366" width="313.185" height="240.267"/><rect class="b" x="465.614" y="427.366" width="313.185" height="240.267"/><rect class="b" x="810.907" y="427.366" width="313.185" height="240.267"/><rect class="b" x="1158.201" y="427.366" width="313.185" height="240.267"/><rect class="b" x="1505.496" y="427.366" width="313.185" height="240.267"/><rect class="b" x="116.319" y="730.302" width="313.185" height="240.267"/><rect class="b" x="465.614" y="730.302" width="313.185" height="240.267"/><rect class="b" x="810.907" y="730.302" width="313.185" height="240.267"/><rect class="b" x="1158.202" y="730.302" width="313.185" height="240.267"/><rect class="b" x="1505.496" y="730.302" width="313.185" height="240.267"/><rect class="c" x="116.319" y="124.431" width="1702.363" height="846.138"/></svg>