<svg xmlns="http://www.w3.org/2000/svg" viewBox="0 0 1935 1095"><defs><style>.a{fill:#fff;}.b,.c,.d{fill:none;stroke:#000;}.b,.d{stroke-miterlimit:10;}.b{stroke-width:15px;}.c{stroke-width:7.173px;}.d{stroke-width:10px;}</style></defs><rect class="a" x="7.5" y="7.5" width="1920" height="1080"/><path class="b" d="M0,0V1080H1920V0Z" transform="translate(7.5 7.5)"/><rect class="c" x="116.319" y="124.431" width="313.185" height="240.267"/><rect class="c" x="465.614" y="124.431" width="313.185" height="240.267"/><rect class="c" x="810.907" y="124.431" width="313.185" height="240.267"/><rect class="c" x="1158.202" y="124.431" width="313.185" height="240.267"/><rect class="c" x="1505.496" y="124.431" width="313.185" height="240.267"/><rect class="c" x="116.318" y="427.366" width="313.185" height="240.267"/><rect class="c" x="465.614" y="427.366" width="313.185" height="240.267"/><rect class="c" x="810.907" y="427.366" width="313.185" height="240.267"/><rect class="c" x="1158.201" y="427.366" width="313.185" height="240.267"/><rect class="c" x="1505.496" y="427.366" width="313.185" height="240.267"/><rect class="c" x="116.319" y="730.302" width="313.185" height="240.267"/><rect class="c" x="465.614" y="730.302" width="313.185" height="240.267"/><rect class="c" x="810.907" y="730.302" width="313.185" height="240.267"/><rect class="c" x="1158.202" y="730.302" width="313.185" height="240.267"/><rect class="c" x="1505.496" y="730.302" width="313.185" height="240.267"/><rect class="d" x="116.319" y="124.431" width="1702.363" height="846.138"/></svg>