<?xml version="1.0" encoding="utf-8"?>
<!-- Generator: Adobe Illustrator 24.1.2, SVG Export Plug-In . SVG Version: 6.00 Build 0)  -->
<svg version="1.1" id="Layer_1" xmlns="http://www.w3.org/2000/svg" xmlns:xlink="http://www.w3.org/1999/xlink" x="0px" y="0px"
	 viewBox="0 0 18 18" style="enable-background:new 0 0 18 18;" xml:space="preserve">
<style type="text/css">
	.st0{fill:none;}
	.st1{fill:#FFFFFF;}
</style>
<path class="st0" d="M0,0h18v18H0V0z"/>
<path class="st1" d="M7.3,7.4l-5.9,5.9c-0.8,0.8-0.8,2,0,2.8c0.8,0.8,2,0.8,2.8,0l6-6c1.7,0.7,3.8,0.3,5.2-1.1
	c1.5-1.5,1.8-3.8,0.9-5.6l-2.7,2.7c-0.3,0.3-0.8,0.3-1.1,0L11.2,5c-0.3-0.3-0.3-0.8,0-1.1l2.7-2.7c-1.8-0.9-4.1-0.6-5.6,0.9
	C6.9,3.6,6.6,5.7,7.3,7.4z"/>
</svg>
