<svg xmlns="http://www.w3.org/2000/svg" viewBox="0 0 150 150"><defs><style>.a{fill:#4bad33;}.b{fill:#0f0f0f;}</style></defs><rect class="a" x="-7.714" y="118.964" width="75" height="2.5" transform="translate(-76.28 56.272) rotate(-45)"/><polygon class="a" points="80.112 85.426 57.186 94.582 55.418 92.814 78.344 83.658 80.112 85.426"/><polygon class="a" points="97.967 53.801 80.112 85.426 78.344 83.658 96.199 52.033 97.967 53.801"/><polygon class="a" points="120.893 44.645 97.967 53.801 96.199 52.033 119.125 42.877 120.893 44.645"/><polygon class="a" points="138.748 13.02 120.893 44.645 119.125 42.877 136.98 11.252 138.748 13.02"/><polygon class="a" points="154.5 -1.137 138.748 13.02 136.98 11.252 152.704 -2.885 154.5 -1.137"/><rect class="b" y="145" width="150" height="5"/><rect class="b" x="-72.5" y="72.5" width="150" height="5" transform="translate(-72.5 77.5) rotate(-90)"/></svg>